<svg width="32" height="32" viewBox="0 0 32 32" fill="none" xmlns="http://www.w3.org/2000/svg">
  <rect width="32" height="32" rx="6" fill="#2563eb"/>
  <path d="M16 6L24 10v6c0 1.5-1 3-2.5 4.5S18 24 16 24s-5.5-1-7-2.5S7 17.5 7 16v-6l9-4z" fill="white"/>
  <path d="M16 8L22 11v5c0 1.2-0.8 2.4-2 3.6S17.2 22 16 22s-3.8-0.8-5-2S9 17.2 9 16v-5l7-3z" fill="#2563eb"/>
  <circle cx="16" cy="15" r="2" fill="white"/>
  <path d="M14 13h4v1h-4v-1z" fill="#2563eb"/>
  <path d="M14 16h4v1h-4v-1z" fill="#2563eb"/>
</svg>